# xmcd
#
# Track frame offsets:
#	150
#	12295
#	25308
#	39361
#	57786
#	68914
#	81727
#	96195
#	115528
#	133381
#	145569
#	157409
#	171032
#	186670
#	202578
#	216421
#	229074
#	246279
#	257937
#	272990
#
# Disc length: 3877 seconds
#
# Revision: 1
# Processed by: cddbd v1.5.2PL0 Copyright (c) Steve Scherf et al.
# Submitted via: audiograbber 1.83.01
#
DISCID=2d0f2314
DTITLE=Various Artist - Halland's Country Hits Volume 2
DYEAR=1900
DGENRE=
TTITLE0=Shelly West - Jose Cuervo
TTITLE1=Keith Whitley - Hard Livin'
TTITLE2=Don Williams - Desperately
TTITLE3=Don Williams - I Believe In You
TTITLE4=Don Williams - It Must Be Love
TTITLE5=Don Williams - Some Hearts Never Mend
TTITLE6=Don Williams - Tulsa Time
TTITLE7=Hank Williams Jr. - A Country Boy Can Survive
TTITLE8=Hank Williams Jr. - All My Rowdy Friends
TTITLE9=Hank Williams Jr. - Born To Boogie
TTITLE10=Hank Williams Jr. - Dixie On My Mind
TTITLE11=Hank Williams Jr. - Good Friends, Good Whiskey, Good Lovin'
TTITLE12=Michelle Wright - Young Country
TTITLE13=Dwight Yokam - One Time Around
TTITLE14=Dwight Yokam - Guitars, Cadillacs
TTITLE15=Dwight Yokam - Honky Tonk Man
TTITLE16=Dwight Yokam - I Sang Dixie
TTITLE17=Dwight Yokam - It Only Hurts When I Cry
TTITLE18=Dwight Yokam - Little Ways
TTITLE19=Dwight Yokam - You're The One
EXTD=
EXTT0=
EXTT1=
EXTT2=
EXTT3=
EXTT4=
EXTT5=
EXTT6=
EXTT7=
EXTT8=
EXTT9=
EXTT10=
EXTT11=
EXTT12=
EXTT13=
EXTT14=
EXTT15=
EXTT16=
EXTT17=
EXTT18=
EXTT19=
PLAYORDER=
